<mxfile host="65bd71144e">
    <diagram id="9IuVLhKq0tHaVyhvaA6h" name="Page-1">
        <mxGraphModel dx="2231" dy="690" grid="1" gridSize="10" guides="1" tooltips="1" connect="1" arrows="1" fold="1" page="1" pageScale="1" pageWidth="850" pageHeight="1100" math="0" shadow="0">
            <root>
                <mxCell id="0"/>
                <mxCell id="1" parent="0"/>
                <mxCell id="57" style="edgeStyle=none;html=1;strokeColor=#FF3333;startArrow=none;startFill=0;endArrow=classic;endFill=1;entryX=1;entryY=0.5;entryDx=0;entryDy=0;" edge="1" parent="1" target="74">
                    <mxGeometry relative="1" as="geometry">
                        <mxPoint x="500" y="275" as="targetPoint"/>
                        <mxPoint x="640" y="275" as="sourcePoint"/>
                    </mxGeometry>
                </mxCell>
                <mxCell id="2" style="edgeStyle=none;html=1;strokeColor=#FF3333;labelBackgroundColor=none;fontColor=#FFFFFF;entryX=0;entryY=0.5;entryDx=0;entryDy=0;" parent="1" source="3" edge="1" target="74">
                    <mxGeometry relative="1" as="geometry">
                        <mxPoint x="30" y="275" as="targetPoint"/>
                    </mxGeometry>
                </mxCell>
                <mxCell id="3" value="Clients" style="ellipse;whiteSpace=wrap;html=1;aspect=fixed;strokeColor=#FF3333;fillColor=#FF3333;labelBackgroundColor=none;fontColor=#FFFFFF;" parent="1" vertex="1">
                    <mxGeometry x="-190" y="235" width="80" height="80" as="geometry"/>
                </mxCell>
                <mxCell id="4" value="General Storage" style="shape=cylinder3;whiteSpace=wrap;html=1;boundedLbl=1;backgroundOutline=1;size=15;strokeWidth=1;fillColor=#FF3333;strokeColor=default;labelBackgroundColor=none;fontColor=#FFFFFF;" parent="1" vertex="1">
                    <mxGeometry x="340" y="940" width="100" height="80" as="geometry"/>
                </mxCell>
                <mxCell id="5" value="" style="group;labelBackgroundColor=none;fontColor=#FFFFFF;strokeColor=none;" parent="1" vertex="1" connectable="0">
                    <mxGeometry x="40" y="490" width="475" height="330" as="geometry"/>
                </mxCell>
                <mxCell id="6" value="" style="group;strokeColor=#FF3333;labelBackgroundColor=none;fontColor=#FFFFFF;" parent="5" vertex="1" connectable="0">
                    <mxGeometry y="40" width="475" height="290" as="geometry"/>
                </mxCell>
                <mxCell id="7" value="Teams" style="rhombus;whiteSpace=wrap;html=1;rounded=0;glass=0;fillColor=#FF3333;strokeColor=#FF3333;labelBackgroundColor=none;fontColor=#FFFFFF;" parent="6" vertex="1">
                    <mxGeometry x="90" y="80" width="130" height="130" as="geometry"/>
                </mxCell>
                <mxCell id="8" value="Boards" style="rhombus;whiteSpace=wrap;html=1;rounded=0;glass=0;fillColor=#FF3333;strokeColor=#FF3333;labelBackgroundColor=none;fontColor=#FFFFFF;" parent="6" vertex="1">
                    <mxGeometry x="170" width="130" height="130" as="geometry"/>
                </mxCell>
                <mxCell id="9" value="Users" style="rhombus;whiteSpace=wrap;html=1;rounded=0;glass=0;fillColor=#FF3333;strokeColor=#FF3333;labelBackgroundColor=none;fontColor=#FFFFFF;" parent="6" vertex="1">
                    <mxGeometry x="255" y="80" width="130" height="130" as="geometry"/>
                </mxCell>
                <mxCell id="12" value="Pipelines" style="rhombus;whiteSpace=wrap;html=1;rounded=0;glass=0;fillColor=#FF3333;strokeColor=#FF3333;labelBackgroundColor=none;fontColor=#FFFFFF;" parent="6" vertex="1">
                    <mxGeometry x="170" y="160" width="130" height="130" as="geometry"/>
                </mxCell>
                <mxCell id="14" value="API" style="text;html=1;strokeColor=none;fillColor=#FF3333;align=center;verticalAlign=middle;whiteSpace=wrap;rounded=0;glass=0;labelBackgroundColor=none;fontColor=#FFFFFF;" parent="5" vertex="1">
                    <mxGeometry x="110" width="60" height="30" as="geometry"/>
                </mxCell>
                <mxCell id="53" value="Non-relational Pipeline Storage" style="shape=cylinder3;whiteSpace=wrap;html=1;boundedLbl=1;backgroundOutline=1;size=15;strokeWidth=1;fillColor=#FF3333;strokeColor=default;labelBackgroundColor=none;fontColor=#FFFFFF;" parent="1" vertex="1">
                    <mxGeometry x="110" y="940" width="100" height="80" as="geometry"/>
                </mxCell>
                <mxCell id="58" value="" style="endArrow=classic;html=1;strokeColor=#FF3333;entryX=0.5;entryY=0;entryDx=0;entryDy=0;entryPerimeter=0;" edge="1" parent="1" target="53">
                    <mxGeometry width="50" height="50" relative="1" as="geometry">
                        <mxPoint x="160" y="820" as="sourcePoint"/>
                        <mxPoint x="300" y="880" as="targetPoint"/>
                    </mxGeometry>
                </mxCell>
                <mxCell id="59" value="" style="endArrow=classic;html=1;strokeColor=#FF3333;entryX=0.5;entryY=0;entryDx=0;entryDy=0;entryPerimeter=0;" edge="1" parent="1">
                    <mxGeometry width="50" height="50" relative="1" as="geometry">
                        <mxPoint x="389.5" y="820" as="sourcePoint"/>
                        <mxPoint x="389.5" y="940" as="targetPoint"/>
                    </mxGeometry>
                </mxCell>
                <mxCell id="60" value="" style="group;strokeColor=#FF3333;labelBackgroundColor=none;fontColor=#FFFFFF;" vertex="1" connectable="0" parent="1">
                    <mxGeometry x="640" y="160" width="460" height="230" as="geometry"/>
                </mxCell>
                <mxCell id="61" value="Pipeline Scheduler" style="rhombus;whiteSpace=wrap;html=1;fillColor=#FF3333;strokeColor=#FF3333;labelBackgroundColor=none;fontColor=#FFFFFF;" vertex="1" parent="60">
                    <mxGeometry x="10" width="100" height="100" as="geometry"/>
                </mxCell>
                <mxCell id="62" value="Queue" style="rounded=0;whiteSpace=wrap;html=1;fillColor=#FF3333;strokeColor=#FF3333;labelBackgroundColor=none;fontColor=#FFFFFF;" vertex="1" parent="60">
                    <mxGeometry x="170" y="20" width="120" height="60" as="geometry"/>
                </mxCell>
                <mxCell id="63" style="edgeStyle=none;html=1;entryX=0;entryY=0.5;entryDx=0;entryDy=0;strokeColor=#FF3333;labelBackgroundColor=none;fontColor=#FFFFFF;" edge="1" parent="60" source="61" target="62">
                    <mxGeometry relative="1" as="geometry"/>
                </mxCell>
                <mxCell id="64" style="edgeStyle=none;html=1;entryX=1;entryY=0.5;entryDx=0;entryDy=0;strokeColor=#FF3333;labelBackgroundColor=none;fontColor=#FFFFFF;" edge="1" parent="60" source="65" target="62">
                    <mxGeometry relative="1" as="geometry"/>
                </mxCell>
                <mxCell id="65" value="Pipeline Executioner" style="rhombus;whiteSpace=wrap;html=1;fillColor=#FF3333;strokeColor=#FF3333;labelBackgroundColor=none;fontColor=#FFFFFF;" vertex="1" parent="60">
                    <mxGeometry x="350" width="100" height="100" as="geometry"/>
                </mxCell>
                <mxCell id="66" style="edgeStyle=none;html=1;entryX=0;entryY=0.5;entryDx=0;entryDy=0;strokeColor=#FF3333;labelBackgroundColor=none;fontColor=#FFFFFF;" edge="1" parent="60" source="62" target="65">
                    <mxGeometry relative="1" as="geometry"/>
                </mxCell>
                <mxCell id="67" style="edgeStyle=none;html=1;entryX=0.5;entryY=1;entryDx=0;entryDy=0;strokeColor=#FF3333;labelBackgroundColor=none;fontColor=#FFFFFF;" edge="1" parent="60" source="68" target="61">
                    <mxGeometry relative="1" as="geometry"/>
                </mxCell>
                <mxCell id="68" value="Retry Queue" style="rounded=0;whiteSpace=wrap;html=1;fillColor=#FF3333;strokeColor=#FF3333;labelBackgroundColor=none;fontColor=#FFFFFF;" vertex="1" parent="60">
                    <mxGeometry y="170" width="120" height="60" as="geometry"/>
                </mxCell>
                <mxCell id="69" style="edgeStyle=none;html=1;entryX=0.5;entryY=0;entryDx=0;entryDy=0;strokeColor=#FF3333;labelBackgroundColor=none;fontColor=#FFFFFF;" edge="1" parent="60" source="61" target="68">
                    <mxGeometry relative="1" as="geometry"/>
                </mxCell>
                <mxCell id="70" style="edgeStyle=none;html=1;entryX=0.5;entryY=1;entryDx=0;entryDy=0;strokeColor=#FF3333;labelBackgroundColor=none;fontColor=#FFFFFF;" edge="1" parent="60" source="71" target="65">
                    <mxGeometry relative="1" as="geometry"/>
                </mxCell>
                <mxCell id="71" value="Retry Queue" style="rounded=0;whiteSpace=wrap;html=1;fillColor=#FF3333;strokeColor=#FF3333;labelBackgroundColor=none;fontColor=#FFFFFF;" vertex="1" parent="60">
                    <mxGeometry x="340" y="170" width="120" height="60" as="geometry"/>
                </mxCell>
                <mxCell id="72" style="edgeStyle=none;html=1;entryX=0.5;entryY=0;entryDx=0;entryDy=0;strokeColor=#FF3333;labelBackgroundColor=none;fontColor=#FFFFFF;" edge="1" parent="60" source="65" target="71">
                    <mxGeometry relative="1" as="geometry"/>
                </mxCell>
                <mxCell id="73" value="Pipeline Execution" style="text;html=1;strokeColor=#FF3333;fillColor=#FF3333;align=center;verticalAlign=middle;whiteSpace=wrap;rounded=0;labelBackgroundColor=none;fontColor=#FFFFFF;" vertex="1" parent="1">
                    <mxGeometry x="840" y="120" width="60" height="30" as="geometry"/>
                </mxCell>
                <mxCell id="75" style="edgeStyle=none;html=1;entryX=0.5;entryY=0;entryDx=0;entryDy=0;strokeColor=#FF3333;startArrow=none;startFill=0;endArrow=classic;endFill=1;" edge="1" parent="1" source="74" target="8">
                    <mxGeometry relative="1" as="geometry"/>
                </mxCell>
                <mxCell id="74" value="API Gateway" style="rhombus;whiteSpace=wrap;html=1;rounded=0;glass=0;fillColor=#FF3333;strokeColor=#FF3333;labelBackgroundColor=none;fontColor=#FFFFFF;" vertex="1" parent="1">
                    <mxGeometry x="210" y="210" width="130" height="130" as="geometry"/>
                </mxCell>
            </root>
        </mxGraphModel>
    </diagram>
</mxfile>
